<svg id="Groupe_173" data-name="Groupe 173" xmlns="http://www.w3.org/2000/svg" xmlns:xlink="http://www.w3.org/1999/xlink" width="164.069" height="112.719" viewBox="0 0 164.069 112.719">
  <defs>
    <clipPath id="clip-path">
      <rect id="Rectangle_218" data-name="Rectangle 218" width="164.069" height="112.719" fill="none"/>
    </clipPath>
  </defs>
  <g id="Groupe_172" data-name="Groupe 172" clip-path="url(#clip-path)">
    <path id="Tracé_14" data-name="Tracé 14" d="M101.275,32.12a12.124,12.124,0,0,0-9.329-.581,2.317,2.317,0,1,0,1.5,4.384,7.577,7.577,0,0,1,9.626,4.709,2.317,2.317,0,1,0,4.384-1.5,12.134,12.134,0,0,0-6.185-7.008" transform="translate(25.544 8.725)" fill="#f27c00"/>
    <path id="Tracé_15" data-name="Tracé 15" d="M105.174,26.948A19.712,19.712,0,0,0,90.016,26a2.317,2.317,0,1,0,1.5,4.384,15.206,15.206,0,0,1,19.32,9.452,2.317,2.317,0,1,0,4.383-1.5,19.708,19.708,0,0,0-10.048-11.387" transform="translate(24.998 7.043)" fill="#f27c00"/>
    <path id="Tracé_16" data-name="Tracé 16" d="M123,37.542A27.488,27.488,0,0,0,88.082,20.456a2.317,2.317,0,1,0,1.5,4.384,22.852,22.852,0,0,1,29.034,14.205,2.318,2.318,0,0,0,4.385-1.5" transform="translate(24.452 5.357)" fill="#f27c00"/>
    <path id="Tracé_17" data-name="Tracé 17" d="M17.414,38.179a.838.838,0,0,1-.018.649,1.132,1.132,0,0,1-.649.319l-1.451.362a1.129,1.129,0,0,1-.723.022.829.829,0,0,1-.319-.564L11.1,26.325a.838.838,0,0,1,.018-.649,1.137,1.137,0,0,1,.649-.319l1.451-.362a1.128,1.128,0,0,1,.723-.022.829.829,0,0,1,.319.563Z" transform="translate(3.123 7.044)" fill="#f27c00"/>
    <path id="Tracé_18" data-name="Tracé 18" d="M17.6,35.12l-.064-.259c-.5-2.007.605-3.317,3.535-4.048a10.462,10.462,0,0,1,1.6-.28.566.566,0,0,0,.5-.7l-.171-.684c-.183-.735-.7-.943-1.738-.685-1.011.251-1.389.621-1.24,1.217l.035.139a.357.357,0,0,1-.305.477l-2.319.578a.407.407,0,0,1-.552-.327l-.04-.159c-.48-1.928.88-3.386,3.872-4.131,3.118-.779,5.118-.031,5.658,2.136l1,4.015.912.512a1.076,1.076,0,0,1,.381,1.531l-.5.779a1.2,1.2,0,0,1-1.6.4l-.711-.4a.577.577,0,0,0-.757.187,4.441,4.441,0,0,1-2.647,1.66c-2.55.636-4.378-.049-4.853-1.956m5.029-.389c.99-.248,1.535-.932,1.357-1.647l-.11-.444a.573.573,0,0,0-.6-.431,6.593,6.593,0,0,0-1.143.174c-1.1.273-1.528.782-1.354,1.479l.05.2c.173.7.79.922,1.8.67" transform="translate(4.735 7.336)" fill="#f27c00"/>
    <path id="Tracé_19" data-name="Tracé 19" d="M36.207,36.275a2.322,2.322,0,1,1-2.814-1.692,2.321,2.321,0,0,1,2.814,1.692" transform="translate(8.94 9.755)" fill="#f27c00"/>
    <path id="Tracé_20" data-name="Tracé 20" d="M19.049,43.359a.236.236,0,0,0,0-.09.246.246,0,0,0-.3-.178L18.7,43.1a1.307,1.307,0,0,1-1.776-1.068l-.387-1.553a1.421,1.421,0,0,1,1.225-1.929l1.422-.354a1.442,1.442,0,0,1,2.015,1.12l.466,1.87a4.957,4.957,0,0,1-.1,2.74l-.661,2.4a1.323,1.323,0,0,1-.922,1.013c-1.027.257-1.843-.548-1.526-1.746l.005-.018.013-.051.022-.081.028-.105.033-.127.038-.146.042-.158c.015-.056.031-.113.045-.169l.046-.174c.015-.058.032-.117.047-.176l.046-.174.045-.169.042-.159.038-.145c.012-.042.023-.085.033-.127s.019-.072.028-.106.015-.054.022-.081l.014-.051,0-.019" transform="translate(4.653 10.772)" fill="#f27c00"/>
    <path id="Tracé_21" data-name="Tracé 21" d="M7.718,59.926,3.8,44.226A1.738,1.738,0,0,1,5.069,42.12l5.452-1.36c4.608-1.149,7.328.1,8.254,3.818l.375,1.5c.926,3.714-.886,6.1-5.5,7.246l-1.688.421a1.139,1.139,0,0,0-.829,1.38l.926,3.716a1.034,1.034,0,0,1-.817,1.324l-2.213.552a1.011,1.011,0,0,1-1.316-.791m4.97-9.8c1.843-.459,2.456-1.369,2.062-2.949L14.384,45.7c-.4-1.58-1.389-2.088-3.207-1.634l-1.529.381a1.139,1.139,0,0,0-.83,1.38l.961,3.849a1.138,1.138,0,0,0,1.38.829Z" transform="translate(1.06 11.404)" fill="#f27c00"/>
    <path id="Tracé_22" data-name="Tracé 22" d="M26.9,51.389l-1.347-5.4a.57.57,0,0,0-.69-.416l-.818.2a.692.692,0,0,1-.881-.508l-.44-1.765a.691.691,0,0,1,.54-.862l.817-.2a.57.57,0,0,0,.416-.69l-.473-1.894a1.385,1.385,0,0,1,1.056-1.83l1.369-.341A1.384,1.384,0,0,1,28.239,38.8l.472,1.894a.569.569,0,0,0,.69.414l1.581-.394a.692.692,0,0,1,.882.508l.44,1.765a.692.692,0,0,1-.54.862l-1.556.387a.569.569,0,0,0-.414.69l1.288,5.166a1,1,0,0,0,1.217.731l1.134-.282a.683.683,0,0,1,.888.534l.427,1.712a.732.732,0,0,1-.561,1.007l-1.948.486c-3.214.8-4.635-.076-5.338-2.894" transform="translate(6.416 10.634)" fill="#f27c00"/>
    <path id="Tracé_23" data-name="Tracé 23" d="M35.36,51.5,32.673,40.728A1.275,1.275,0,0,1,33.7,39.016l1.528-.381a1.275,1.275,0,0,1,1.711,1.029L39.627,50.44a.941.941,0,0,1-.731,1.217l-2.319.577A.94.94,0,0,1,35.36,51.5" transform="translate(9.217 10.902)" fill="#f27c00"/>
    <path id="Tracé_24" data-name="Tracé 24" d="M42.674,47.456l-1.347-5.4a.57.57,0,0,0-.69-.416l-.818.2a.692.692,0,0,1-.881-.508l-.44-1.765a.691.691,0,0,1,.54-.862l.817-.2a.57.57,0,0,0,.416-.69L39.8,35.919a1.385,1.385,0,0,1,1.056-1.83l1.369-.341a1.384,1.384,0,0,1,1.791,1.121l.472,1.894a.569.569,0,0,0,.69.414l1.581-.394a.692.692,0,0,1,.882.508l.44,1.765a.692.692,0,0,1-.54.862l-1.556.387a.569.569,0,0,0-.414.69l1.288,5.166a1,1,0,0,0,1.217.731l1.134-.282a.683.683,0,0,1,.888.534l.427,1.712a.731.731,0,0,1-.561,1.007l-1.948.486c-3.214.8-4.635-.076-5.338-2.894" transform="translate(10.874 9.522)" fill="#f27c00"/>
    <path id="Tracé_25" data-name="Tracé 25" d="M48.654,44.364,47.8,40.929c-.838-3.358,1.225-5.791,5.524-6.862,4.329-1.08,7.043.054,7.861,3.336l.45,1.806c.2.789-.1,1.267-.936,1.476l-7.183,1.791a.56.56,0,0,0-.419.671l.133.536c.312,1.245,1.149,1.632,2.936,1.186,1.4-.349,1.971-.9,1.787-1.635l-.024-.1c-.077-.305,0-.46.367-.552l3.21-.8a.486.486,0,0,1,.658.377l.05.2c.6,2.418-1.292,4.213-5.369,5.231-4.439,1.107-7.378.03-8.19-3.227m3.453-5.184.108.434a.56.56,0,0,0,.686.4l3.586-.894a.56.56,0,0,0,.419-.671L56.8,38.01c-.305-1.221-1.274-1.655-2.837-1.265S51.8,37.959,52.107,39.18" transform="translate(13.457 9.516)" fill="#f27c00"/>
    <path id="Tracé_26" data-name="Tracé 26" d="M99.671,40.6a4.341,4.341,0,1,1-5.263-3.162A4.341,4.341,0,0,1,99.671,40.6" transform="translate(25.752 10.544)" fill="#f27c00"/>
    <path id="Tracé_27" data-name="Tracé 27" d="M46.329,87.445,36.236,78.431a5.258,5.258,0,0,1-2.045-2.945l-.1-.413c-.425-1.7.2-2.79,1.776-3.183l1.234-.308c3.06-.763,4.084-2.334,3.35-5.277l-.513-2.059c-.734-2.942-2.388-3.9-5.449-3.137l-4.319,1.076a1.709,1.709,0,0,0-1.244,2.071l6.441,25.831a1.982,1.982,0,0,1-1.51,2.569L29.709,93.69a1.942,1.942,0,0,1-2.49-1.573L19.4,60.752a3.116,3.116,0,0,1,2.336-4.09l11.308-2.819c8.145-2.03,13.1.405,14.816,7.271l.63,2.529c1.047,4.193.266,7.389-2.5,9.694a1.7,1.7,0,0,0,0,2.609l6.1,5.131a4.293,4.293,0,1,1-5.753,6.368" transform="translate(5.444 15.022)" fill="#f27c00"/>
    <path id="Tracé_28" data-name="Tracé 28" d="M48.7,78.322l-.167-.671c-1.3-5.213,1.229-8.529,8.09-10.241a23.114,23.114,0,0,1,3.36-.593,1.7,1.7,0,0,0,1.471-2.11l-.369-1.48c-.476-1.91-1.717-2.478-4.136-1.874-2.37.59-3.239,1.52-2.853,3.068l.09.362A.882.882,0,0,1,53.493,66l-5.429,1.353c-.691.173-1.14-.154-1.32-.876l-.1-.413c-1.249-5.007,1.87-8.691,8.88-10.438,7.306-1.821,12.063.226,13.466,5.853l2.433,9.762a1.708,1.708,0,0,0,.745,1.03l1.475.931a3.119,3.119,0,0,1,1.043,4.181L73.7,79.108a2.8,2.8,0,0,1-3.948.984l-1.208-.762a1.71,1.71,0,0,0-2.325.49,9.906,9.906,0,0,1-5.958,3.845c-5.973,1.489-10.321-.387-11.556-5.343m11.832-.7c2.32-.578,3.564-2.314,3.1-4.172L63.274,72a1.136,1.136,0,0,0-1.14-.864,14.16,14.16,0,0,0-2.909.4c-2.567.64-3.557,1.929-3.107,3.735l.13.517c.45,1.806,1.916,2.428,4.285,1.837" transform="translate(13.106 15.538)" fill="#f27c00"/>
    <path id="Tracé_29" data-name="Tracé 29" d="M71.206,72l-1.493-5.987c-1.66-6.658,1.779-11.792,7.8-13.294a10.334,10.334,0,0,1,3.849-.285,1.7,1.7,0,0,0,1.844-2.11l-1.444-5.792a2.805,2.805,0,0,1,2.068-3.7l2.27-.566a2.844,2.844,0,0,1,3.611,2.279l6.268,25.143a1.707,1.707,0,0,0,.745,1.031l1.475.931a3.117,3.117,0,0,1,1.043,4.18l-.986,1.726a2.832,2.832,0,0,1-4,1l-1.29-.816a1.71,1.71,0,0,0-2.343.518,9.788,9.788,0,0,1-6.054,3.918C78.4,81.715,72.892,78.757,71.206,72m16.531-3.518L85.96,61.353c-.668-2.683-2.473-3.824-5.238-3.133s-3.772,2.529-3.1,5.214l1.776,7.124c.67,2.683,2.425,3.835,5.19,3.146s3.822-2.542,3.153-5.227" transform="translate(19.585 11.35)" fill="#f27c00"/>
    <path id="Tracé_30" data-name="Tracé 30" d="M98.679,71.531,93.091,49.124c-.45-1.8.25-2.995,1.879-3.4l2.863-.713c1.629-.407,2.805.316,3.255,2.12l5.587,22.408a1.833,1.833,0,0,1-1.337,2.42L101,73.041a1.832,1.832,0,0,1-2.316-1.51" transform="translate(26.273 12.69)" fill="#f27c00"/>
    <path id="Tracé_31" data-name="Tracé 31" d="M107.321,60.611l-1.531-6.143c-1.724-6.916,1.9-11.822,9.43-13.7,7.625-1.9,13.13.729,14.854,7.646l1.531,6.143c1.738,6.967-1.9,11.822-9.477,13.711s-13.069-.689-14.807-7.657m16.343-3.362L121.8,49.765c-.644-2.581-2.449-3.612-5.265-2.909-2.768.69-3.829,2.434-3.185,5.016l1.865,7.484c.657,2.632,2.413,3.675,5.229,2.972,2.769-.69,3.879-2.447,3.222-5.079" transform="translate(29.78 11.353)" fill="#f27c00"/>
  </g>
</svg>
